# xmcd
#
# Track frame offsets:
# 150
# 17352
# 34703
# 48281
# 62143
# 78039
# 97234
# 113960
# 124386
# 137324
# 147158
# 160452
#
# Disc length: 2336 seconds
#
#
# Revision: 0
# Processed by: cddbd v1.5.2PL0 Copyright (c) Steve Scherf et al.
# Submitted via: Nero 7, 11, 10, 0 
#
DISCID=9b091e0c
DTITLE=Jeff Turmes - The Distance You Can Travel
DYEAR=2006
DGENRE=Blues
TTITLE0=Eat The Lunch You Brought
TTITLE1=Somebody Ran Out Of Love
TTITLE2=Woman Knows
TTITLE3=Money Machine
TTITLE4=The Distance You Can Travel
TTITLE5=Makin' Money
TTITLE6=Trouble With Soul
TTITLE7=Not Enough
TTITLE8=That Woman's On Fire
TTITLE9=I Can't Get Drunk
TTITLE10=You Might Need Someone
TTITLE11=Good Car
EXTD=
EXTT0=Eat The Lunch You Brought
EXTT1=Somebody Ran Out Of Love
EXTT2=Woman Knows
EXTT3=Money Machine
EXTT4=The Distance You Can Travel
EXTT5=Makin' Money
EXTT6=Trouble With Soul
EXTT7=Not Enough
EXTT8=That Woman's On Fire
EXTT9=I Can't Get Drunk
EXTT10=You Might Need Someone
EXTT11=Good Car
PLAYORDER=
